<?xml version="1.0" encoding="utf-8"?>
<!-- Generator: Adobe Illustrator 24.0.0, SVG Export Plug-In . SVG Version: 6.00 Build 0)  -->
<svg version="1.1" id="Layer_1" xmlns="http://www.w3.org/2000/svg" xmlns:xlink="http://www.w3.org/1999/xlink" x="0px" y="0px"
	 viewBox="0 0 32 32" style="enable-background:new 0 0 32 32;" xml:space="preserve">
<style type="text/css">
	.st0{fill:#EF4136;}
</style>
<g>
	<g>
		<path class="st0" d="M12.69,12.46c-0.62,0-1.15,0.26-1.59,0.78s-0.79,1.21-1.03,2.08l3.18,0.04c0.23-0.75,0.35-1.31,0.35-1.68
			C13.6,12.86,13.3,12.46,12.69,12.46z"/>
	</g>
	<g>
		<path class="st0" d="M16,0C7.16,0,0,7.16,0,16s7.16,16,16,16s16-7.16,16-16S24.84,0,16,0z M15.76,20.25
			c-0.31,0.28-0.66,0.5-1.04,0.68s-0.76,0.27-1.12,0.27c-0.55,0-0.93-0.14-1.14-0.41c-0.21-0.28-0.31-0.68-0.31-1.22
			c0-0.54,0.21-1.46,0.63-2.76c-1.29-0.06-2.23-0.08-2.81-0.08h-0.2c-0.17,1.04-0.25,2.12-0.25,3.26c0,0.5-0.19,0.85-0.57,1.04
			c-0.18,0.08-0.35,0.16-0.51,0.24c-0.16,0.07-0.34,0.11-0.52,0.11c-0.47,0-0.7-0.42-0.7-1.26s0.19-1.92,0.57-3.23
			C7.36,16.91,7,16.96,6.69,17.01c-0.31,0.05-0.56,0.07-0.74,0.07s-0.27-0.05-0.27-0.14c0-0.28,0.23-0.56,0.69-0.85
			c0.47-0.29,1.1-0.51,1.89-0.66c0.88-2.23,1.95-3.72,3.22-4.47c0.47-0.28,0.96-0.42,1.48-0.42c0.93,0.01,1.61,0.26,2.02,0.76
			c0.42,0.49,0.63,1.15,0.63,1.97c0,0.82-0.24,1.88-0.75,3.19c-0.19,0.5-0.36,0.96-0.52,1.37c-0.16,0.41-0.24,0.74-0.24,0.99
			s0.02,0.44,0.06,0.57c0.04,0.13,0.13,0.2,0.27,0.2c0.25,0,0.84-0.49,1.78-1.46c0.17-0.19,0.29-0.28,0.36-0.28
			c0.16,0,0.24,0.21,0.24,0.64c0,0.23-0.1,0.52-0.29,0.85C16.33,19.67,16.07,19.97,15.76,20.25z M25.26,19.74
			c-0.23,0.38-0.55,0.71-0.94,0.96c-0.78,0.5-1.79,0.76-3.01,0.76c-0.87,0-1.83-0.2-2.9-0.59c-0.71-0.26-1.23-0.57-1.57-0.94
			c-0.17-0.18-0.25-0.35-0.25-0.53c0-0.18,0.09-0.27,0.27-0.27s0.5,0.06,0.99,0.18V19.3c0-0.73,0.08-1.47,0.25-2.24
			c0.29-1.33,0.63-2.38,1.01-3.14c0.41-0.84,0.83-1.26,1.27-1.26c0.12,0,0.18,0.21,0.18,0.63s-0.04,0.85-0.12,1.29
			c-0.08,0.44-0.16,0.87-0.25,1.29c-0.09,0.42-0.17,0.81-0.25,1.15c-0.08,0.35-0.12,0.59-0.12,0.74l-0.14,2.12
			c0.55,0.15,1.02,0.22,1.4,0.22s0.73-0.06,1.04-0.2c0.77-0.33,1.16-0.9,1.16-1.71c0-0.49-0.05-0.89-0.14-1.2
			c-0.09-0.32-0.26-0.6-0.5-0.84c-0.21,0.05-0.39,0.07-0.53,0.07c-0.91,0-1.35-0.23-1.33-0.69c0-0.43,0.43-0.64,1.3-0.64
			c0.21,0,0.4,0.02,0.59,0.07c0.31-0.31,0.46-0.77,0.46-1.4c0-1.08-0.72-1.62-2.17-1.62c-0.76,0-1.47,0.16-2.16,0.49
			c-0.25,0.12-0.48,0.23-0.68,0.34c-0.2,0.1-0.38,0.15-0.55,0.15c-0.17,0-0.25-0.05-0.25-0.15c0-0.12,0.09-0.3,0.28-0.54
			c0.19-0.24,0.45-0.48,0.78-0.72c0.86-0.6,1.83-0.9,2.93-0.91c1.43,0,2.48,0.28,3.15,0.85c0.58,0.48,0.87,1.13,0.87,1.95
			c0,0.95-0.47,1.68-1.4,2.18c0.9,0.51,1.43,1.14,1.6,1.89c0.06,0.26,0.08,0.61,0.08,1.04C25.61,18.95,25.49,19.36,25.26,19.74z"/>
	</g>
</g>
</svg>
